
        <svg xmlns="http://www.w3.org/2000/svg" xmlns:xlink="http://www.w3.org/1999/xlink" version="1.1" width="3162.313432835821" 
        height="722.0149253731344" viewBox="0 0 3162.313432835821 722.0149253731344">
			
			<g transform="scale(8.115671641791044) translate(10, 10)">
				<defs id="SvgjsDefs3180"></defs><g id="SvgjsG3181" featureKey="symbolFeature-0" transform="matrix(0.8620689655172414,0,0,0.8620689655172414,-12.931034482758621,-8.620689655172415)" fill="#ffcd38"><path xmlns="http://www.w3.org/2000/svg" d="M50,10L15,30v40l35,20l34.99-19.994L85,69.99V30L50,10z M50,17.699L74.89,31.92l-6.732,3.848L50,25.397L31.846,35.771  l-6.738-3.851L50,17.699z M64.795,41.546v13.059L53.369,48.08V35.02L64.795,41.546z M46.631,35.02v13.057l-11.423,6.527V41.546  L46.631,35.02z M46.631,80.377L21.735,66.152v-28.46l6.734,3.848v20.761L46.631,72.68V80.377z M38.571,60.377l11.426-6.529  l11.429,6.529L50,66.904L38.571,60.377z M78.265,66.152L53.369,80.377V72.68L71.53,62.305V41.54l6.734-3.848V66.152z"></path></g><g id="SvgjsG3182" featureKey="nameFeature-0" transform="matrix(0.8836337896094424,0,0,0.8836337896094424,77.13702714526255,12.17544387653105)" fill="#ffffff"><path d="M16.72 10 q4.76 0 7.68 2.74 t2.92 7.3 t-2.88 7.28 t-7.72 2.72 l-7.64 0 l0 8.16 q0 0.56 -0.42 0.98 t-0.98 0.42 l-3.04 0 q-0.56 0 -0.98 -0.42 t-0.42 -0.98 l0 -12.4 q0 -0.56 0.42 -0.98 t0.98 -0.42 l11.84 0 q2.68 0 3.84 -1.16 q1.16 -1.04 1.16 -3.16 t-1.2 -3.26 t-3.8 -1.14 l-11.84 0 q-0.56 0 -0.98 -0.42 t-0.42 -0.98 l0 -2.88 q0 -0.56 0.42 -0.98 t0.98 -0.42 l12.08 0 z M44.6 10 q6.56 0 10.76 4.4 q4.12 4.32 4.12 10.6 t-4.12 10.6 q-4.2 4.4 -10.76 4.4 t-10.76 -4.4 q-4.12 -4.32 -4.12 -10.6 t4.12 -10.6 q4.2 -4.4 10.76 -4.4 z M44.6 34.28 q4.12 0 6.64 -2.64 q2.44 -2.56 2.44 -6.62 t-2.48 -6.68 t-6.6 -2.62 t-6.6 2.62 t-2.48 6.68 t2.44 6.62 q2.52 2.64 6.64 2.64 z M83.16000000000001 33.68 q0.6 0 1 0.42 t0.4 0.98 l0 2.88 q0 0.56 -0.4 0.98 t-1 0.42 l-17.48 0 q-0.56 0 -0.98 -0.42 t-0.42 -0.98 l0 -26.56 q0 -0.56 0.42 -0.98 t0.98 -0.42 l3 0 q0.56 0 0.98 0.42 t0.42 0.98 l0 22.28 l13.08 0 z M111.88 10 q0.4 0 0.74 0.2 t0.5 0.54 t0.14 0.74 t-0.22 0.72 l-10.88 15.68 l0 10.08 q0 0.56 -0.42 0.98 t-0.98 0.42 l-3 0 q-0.56 0 -0.98 -0.42 t-0.42 -0.98 l0 -10.08 l-10.92 -15.68 q-0.2 -0.32 -0.22 -0.72 t0.14 -0.74 t0.5 -0.54 t0.74 -0.2 l3.64 0 q0.68 0 1.16 0.6 l7.84 11.28 l7.84 -11.28 q0.48 -0.6 1.16 -0.6 l3.64 0 z M131.28 15.719999999999999 q-0.52 -0.08 -0.86 -0.48 t-0.34 -0.92 l0 -2.92 q0 -0.68 0.48 -1.08 t1.12 -0.32 q3.44 0.56 6.12 2.44 q3.48 2.52 4.92 6.68 q0.24 0.68 -0.16 1.28 t-1.16 0.6 l-3.2 0 q-0.44 0 -0.8 -0.22 t-0.52 -0.62 q-0.88 -2.08 -2.68 -3.32 q-1.4 -0.88 -2.92 -1.12 z M141.4 29 q0.76 0 1.16 0.6 t0.16 1.28 q-1.44 4.16 -4.92 6.68 q-2.68 1.88 -6.12 2.44 l-0.2 0 q-0.56 0 -0.92 -0.36 q-0.48 -0.36 -0.48 -1.04 l0 -2.92 q0 -0.52 0.32 -0.92 t0.84 -0.48 q1.68 -0.24 2.96 -1.12 q1.8 -1.24 2.68 -3.32 q0.16 -0.4 0.52 -0.62 t0.8 -0.22 l3.2 0 z M127.08 10.48 q0.52 0.4 0.52 1.08 l0 3.12 q0 0.44 -0.3 0.82 t-0.74 0.54 q-0.56 0.12 -0.88 0.28 q-1.6 0.72 -2.72 1.96 q-2.28 2.56 -2.28 6.7 t2.28 6.74 q1.4 1.6 3.6 2.24 q0.44 0.12 0.74 0.5 t0.3 0.82 l0 3.16 q0 0.68 -0.52 1.08 q-0.36 0.32 -0.92 0.32 l-0.28 0 q-4.28 -0.92 -7.24 -4.16 q-3.8 -4.28 -3.8 -10.68 t3.8 -10.68 q2.96 -3.28 7.24 -4.12 q0.64 -0.16 1.2 0.28 z M160.52 10 q6.56 0 10.76 4.4 q4.12 4.32 4.12 10.6 t-4.12 10.6 q-4.2 4.4 -10.76 4.4 t-10.76 -4.4 q-4.12 -4.32 -4.12 -10.6 t4.12 -10.6 q4.2 -4.4 10.76 -4.4 z M160.52 34.28 q4.12 0 6.64 -2.64 q2.44 -2.56 2.44 -6.62 t-2.48 -6.68 t-6.6 -2.62 t-6.6 2.62 t-2.48 6.68 t2.44 6.62 q2.52 2.64 6.64 2.64 z M194.92000000000002 10.84 l11.2 26.44 q0.2 0.32 0.2 0.68 q0 0.56 -0.4 0.98 t-1 0.42 l-3.32 0 q-0.44 0 -0.78 -0.22 t-0.5 -0.62 l-2.92 -6.88 l-11.32 0 l-2.88 6.88 q-0.16 0.4 -0.5 0.62 t-0.78 0.22 l-3.32 0 q-0.36 0 -0.68 -0.18 t-0.5 -0.46 t-0.22 -0.62 t0.12 -0.66 l11.28 -26.6 q0.16 -0.4 0.5 -0.62 t0.78 -0.22 l3.76 0 q0.44 0 0.78 0.22 t0.5 0.62 z M191.76000000000002 18.12 l-3.32 7.96 l6.64 0 z M230.04000000000002 10 q0.56 0 0.96 0.42 t0.4 0.98 l0 2.88 q0 0.56 -0.4 0.98 t-0.96 0.42 l-7.88 0 l0 22.28 q0 0.56 -0.42 0.98 t-0.98 0.42 l-3 0 q-0.6 0 -1 -0.42 t-0.4 -0.98 l0 -22.28 l-7.88 0 q-0.56 0 -0.98 -0.42 t-0.42 -0.98 l0 -2.88 q0 -0.56 0.42 -0.98 t0.98 -0.42 l21.56 0 z M258.36 15.719999999999999 q-0.52 -0.08 -0.86 -0.48 t-0.34 -0.92 l0 -2.92 q0 -0.68 0.48 -1.08 t1.12 -0.32 q3.44 0.56 6.12 2.44 q3.48 2.52 4.92 6.68 q0.24 0.68 -0.16 1.28 t-1.16 0.6 l-3.2 0 q-0.44 0 -0.8 -0.22 t-0.52 -0.62 q-0.88 -2.08 -2.68 -3.32 q-1.4 -0.88 -2.92 -1.12 z M268.48 29 q0.76 0 1.16 0.6 t0.16 1.28 q-1.44 4.16 -4.92 6.68 q-2.68 1.88 -6.12 2.44 l-0.2 0 q-0.56 0 -0.92 -0.36 q-0.48 -0.36 -0.48 -1.04 l0 -2.92 q0 -0.52 0.32 -0.92 t0.84 -0.48 q1.68 -0.24 2.96 -1.12 q1.8 -1.24 2.68 -3.32 q0.16 -0.4 0.52 -0.62 t0.8 -0.22 l3.2 0 z M254.16000000000003 10.48 q0.52 0.4 0.52 1.08 l0 3.12 q0 0.44 -0.3 0.82 t-0.74 0.54 q-0.56 0.12 -0.88 0.28 q-1.6 0.72 -2.72 1.96 q-2.28 2.56 -2.28 6.7 t2.28 6.74 q1.4 1.6 3.6 2.24 q0.44 0.12 0.74 0.5 t0.3 0.82 l0 3.16 q0 0.68 -0.52 1.08 q-0.36 0.32 -0.92 0.32 l-0.28 0 q-4.28 -0.92 -7.24 -4.16 q-3.8 -4.28 -3.8 -10.68 t3.8 -10.68 q2.96 -3.28 7.24 -4.12 q0.64 -0.16 1.2 0.28 z M287.88 10 q4.76 0 7.68 2.74 t2.92 7.3 t-2.88 7.28 t-7.72 2.72 l-7.64 0 l0 8.16 q0 0.56 -0.42 0.98 t-0.98 0.42 l-3.04 0 q-0.56 0 -0.98 -0.42 t-0.42 -0.98 l0 -12.4 q0 -0.56 0.42 -0.98 t0.98 -0.42 l11.84 0 q2.68 0 3.84 -1.16 q1.16 -1.04 1.16 -3.16 t-1.2 -3.26 t-3.8 -1.14 l-11.84 0 q-0.56 0 -0.98 -0.42 t-0.42 -0.98 l0 -2.88 q0 -0.56 0.42 -0.98 t0.98 -0.42 l12.08 0 z M325.32000000000005 28.72 q-0.24 -0.24 -0.34 -0.58 t-0.02 -0.66 q0.2 -1.28 0.2 -2.28 q0 -4.12 -2.44 -6.72 q-2.56 -2.68 -6.76 -2.68 t-6.76 2.68 q-2.44 2.6 -2.44 6.72 t2.44 6.72 q2.56 2.68 6.76 2.68 q1.68 0 3 -0.4 l-2.28 -2.28 q-0.4 -0.48 -0.4 -1 t0.4 -1 l2.16 -2.16 q0.44 -0.44 1.02 -0.44 t0.98 0.44 l8.68 8.68 q0.44 0.4 0.44 0.98 t-0.44 1.02 l-2.16 2.16 q-0.36 0.4 -0.98 0.4 t-1.02 -0.4 l-1.96 -2 q-3.28 1.8 -7.44 1.8 q-6.64 0 -10.92 -4.44 q-4.16 -4.36 -4.16 -10.76 t4.16 -10.76 q4.32 -4.44 10.94 -4.44 t10.9 4.48 q4.16 4.28 4.16 10.72 q0 2.84 -0.92 5.48 q-0.12 0.36 -0.38 0.6 t-0.62 0.28 q-0.76 0.2 -1.32 -0.36 z"></path></g>
			</g>
		</svg>
	